<svg width="12" height="10" viewBox="0 0 12 10" fill="none" xmlns="http://www.w3.org/2000/svg">
<path d="M0.558333 4.55862L4.13333 0.983618C4.375 0.741951 4.775 0.741951 5.01667 0.983618C5.25833 1.22528 5.25833 1.62528 5.01667 1.86695L2.50833 4.37529H11C11.3417 4.37529 11.625 4.65862 11.625 5.00029C11.625 5.34195 11.3417 5.62529 11 5.62529H2.50833L5.01667 8.13362C5.25833 8.37529 5.25833 8.77529 5.01667 9.01695C4.89167 9.14195 4.73333 9.20029 4.575 9.20029C4.41667 9.20029 4.25833 9.14195 4.13333 9.01695L0.558333 5.44195C0.441666 5.32529 0.375 5.16695 0.375 5.00029C0.375 4.83362 0.441666 4.67529 0.558333 4.55862Z" fill="#002859"/>
</svg>
