<svg width="59" height="58" viewBox="0 0 59 58" fill="none" xmlns="http://www.w3.org/2000/svg">
<path d="M12.5833 33.8334C7.24246 33.8334 2.91663 38.1592 2.91663 43.5C2.91663 48.8409 7.24246 53.1667 12.5833 53.1667C17.9241 53.1667 22.25 48.8409 22.25 43.5C22.25 38.1592 17.9241 33.8334 12.5833 33.8334ZM15 42.7267C15 44.2009 14.2025 45.6025 12.9459 46.3517L11.1092 47.4634C10.8192 47.6326 10.505 47.7292 10.1908 47.7292C9.58665 47.7292 8.98245 47.4151 8.64411 46.8592C8.13661 46.0134 8.40247 44.8775 9.27247 44.37L11.1092 43.2584C11.2783 43.1618 11.3991 42.9442 11.3991 42.7509V40.5034C11.3991 39.5126 12.2208 38.6909 13.2116 38.6909C14.2025 38.6909 15.0241 39.5126 15.0241 40.5034V42.7267H15Z" fill="#035AC5"/>
<path opacity="0.4" d="M53.6667 21.75V36.25C53.6667 44.7083 48.8334 48.3333 41.5834 48.3333H20.9209C21.7667 46.9075 22.25 45.2641 22.25 43.5C22.25 38.1591 17.9242 33.8333 12.5834 33.8333C9.68337 33.8333 7.09754 35.1141 5.33337 37.1199V21.75C5.33337 13.2916 10.1667 9.66663 17.4167 9.66663H41.5834C48.8334 9.66663 53.6667 13.2916 53.6667 21.75Z" fill="#035AC5"/>
<path d="M29.5 35.0417C32.8368 35.0417 35.5417 32.3368 35.5417 29C35.5417 25.6633 32.8368 22.9584 29.5 22.9584C26.1633 22.9584 23.4584 25.6633 23.4584 29C23.4584 32.3368 26.1633 35.0417 29.5 35.0417Z" fill="#035AC5"/>
<path d="M45.2084 35.6458C44.2175 35.6458 43.3959 34.8241 43.3959 33.8333V24.1666C43.3959 23.1758 44.2175 22.3541 45.2084 22.3541C46.1992 22.3541 47.0209 23.1758 47.0209 24.1666V33.8333C47.0209 34.8241 46.1992 35.6458 45.2084 35.6458Z" fill="#035AC5"/>
</svg>
