<svg width="20" height="20" viewBox="0 0 20 20" fill="none" xmlns="http://www.w3.org/2000/svg">
<path d="M9.58329 18.125C4.87496 18.125 1.04163 14.2916 1.04163 9.58329C1.04163 4.87496 4.87496 1.04163 9.58329 1.04163C14.2916 1.04163 18.125 4.87496 18.125 9.58329C18.125 14.2916 14.2916 18.125 9.58329 18.125ZM9.58329 2.29163C5.55829 2.29163 2.29163 5.56663 2.29163 9.58329C2.29163 13.6 5.55829 16.875 9.58329 16.875C13.6083 16.875 16.875 13.6 16.875 9.58329C16.875 5.56663 13.6083 2.29163 9.58329 2.29163Z" fill="#647184"/>
<path d="M18.3333 18.9587C18.175 18.9587 18.0166 18.9003 17.8916 18.7753L16.225 17.1087C15.9833 16.867 15.9833 16.467 16.225 16.2253C16.4666 15.9837 16.8666 15.9837 17.1083 16.2253L18.775 17.892C19.0166 18.1337 19.0166 18.5337 18.775 18.7753C18.65 18.9003 18.4916 18.9587 18.3333 18.9587Z" fill="#647184"/>
</svg>
